<?xml version="1.0" standalone="no"?>
<!DOCTYPE svg PUBLIC "-//W3C//DTD SVG 20010904//EN"
 "http://www.w3.org/TR/2001/REC-SVG-20010904/DTD/svg10.dtd">
<svg version="1.0" xmlns="http://www.w3.org/2000/svg"
 width="1417.000000pt" height="380.000000pt" viewBox="0 0 1417.000000 380.000000"
 preserveAspectRatio="xMidYMid meet">

<g transform="translate(0.000000,380.000000) scale(0.100000,-0.100000)"
fill="#000000" stroke="none">
<path d="M811 3705 c-12 -47 -37 -156 -146 -640 -23 -104 -59 -262 -79 -350
-21 -88 -52 -227 -71 -310 -32 -141 -104 -459 -145 -640 -10 -44 -39 -170 -64
-280 -183 -806 -281 -1240 -291 -1278 l-7 -27 258 2 257 3 8 25 c4 14 19 81
34 150 14 69 46 215 70 325 24 110 67 306 95 435 73 337 96 443 140 642 45
202 80 402 81 468 1 80 12 87 34 23 44 -136 90 -241 229 -527 58 -120 106
-220 106 -221 0 -1 50 -105 111 -231 61 -126 130 -269 154 -319 23 -49 74
-155 113 -235 38 -80 124 -260 192 -400 67 -140 126 -259 131 -264 8 -9 59 93
434 859 62 127 197 401 300 610 235 478 241 492 315 755 13 44 14 41 46 -190
22 -161 56 -340 108 -570 42 -184 85 -375 96 -425 11 -49 31 -139 45 -200 14
-60 36 -159 49 -220 78 -352 108 -480 112 -487 3 -4 120 -8 260 -8 207 0 254
3 254 14 0 12 -68 312 -105 461 -8 33 -33 139 -55 235 -22 96 -61 263 -86 370
-25 107 -54 231 -64 275 -38 167 -61 267 -110 475 -28 118 -66 285 -86 370
-19 85 -43 191 -54 235 -10 44 -42 179 -70 300 -28 121 -57 247 -65 280 -20
83 -92 395 -112 483 -9 39 -20 72 -25 72 -4 0 -8 -4 -8 -9 0 -6 -18 -49 -41
-98 -22 -48 -83 -180 -134 -293 -51 -113 -112 -245 -135 -295 -23 -49 -84
-182 -135 -295 -51 -113 -110 -241 -130 -285 -43 -93 -260 -567 -412 -900 -88
-194 -143 -325 -177 -419 -4 -11 -10 -15 -15 -10 -4 5 -43 99 -86 209 -43 110
-102 250 -130 310 -29 61 -82 173 -118 250 -36 77 -86 185 -112 240 -26 55
-109 233 -185 395 -76 162 -157 336 -180 385 -151 320 -212 451 -251 535 -24
52 -64 138 -90 190 l-46 94 -12 -49z"/>
<path d="M10397 3724 c-15 -30 -83 -175 -252 -539 -53 -115 -119 -257 -146
-314 -27 -57 -49 -105 -49 -106 0 -2 -29 -64 -65 -140 -36 -75 -65 -138 -65
-140 0 -2 -31 -69 -70 -150 -38 -81 -70 -148 -70 -150 0 -2 -29 -65 -65 -140
-36 -75 -65 -138 -65 -140 0 -2 -24 -54 -54 -116 -29 -63 -98 -208 -151 -324
-101 -218 -283 -607 -475 -1020 -62 -132 -114 -246 -117 -252 -4 -10 58 -13
289 -13 l294 0 193 433 c228 508 228 509 276 612 20 44 55 121 77 170 22 50
44 94 49 99 5 6 9 16 9 23 0 7 15 45 34 85 19 40 75 165 125 278 51 113 96
214 101 225 98 215 177 425 201 538 6 26 14 45 19 42 4 -3 14 -29 21 -57 33
-142 57 -202 282 -708 101 -228 206 -467 232 -530 26 -63 56 -134 66 -157 10
-23 19 -44 19 -47 0 -3 20 -47 44 -98 24 -51 83 -183 131 -293 49 -110 129
-292 180 -405 l91 -205 292 -3 c161 -1 292 1 292 6 0 4 -72 163 -161 352 -88
190 -180 388 -204 440 -24 52 -66 145 -95 205 -29 61 -60 128 -70 150 -15 35
-84 183 -367 790 -36 77 -74 158 -83 180 -10 22 -45 98 -79 168 -33 71 -61
130 -61 132 0 2 -22 50 -49 107 -27 56 -92 198 -146 313 -54 116 -128 275
-165 355 -37 80 -89 192 -115 250 -26 58 -51 109 -55 114 -5 4 -15 -5 -23 -20z"/>
<path d="M4500 1901 l0 -1721 558 0 c563 0 772 7 1005 35 367 43 646 174 887
415 224 223 359 492 431 855 22 111 24 144 24 420 -1 288 -2 305 -28 430 -34
160 -95 340 -154 460 -208 414 -583 691 -1043 770 -215 37 -407 47 -1047 52
l-633 5 0 -1721z m1425 1195 c252 -34 414 -106 563 -250 232 -224 342 -527
342 -946 0 -419 -110 -723 -342 -946 -115 -111 -199 -162 -344 -207 -156 -49
-281 -60 -702 -61 l-382 -1 0 1213 c0 666 0 1215 0 1218 0 14 743 -4 865 -20z"/>
<path d="M11780 3380 l0 -240 455 0 455 0 0 -1480 0 -1480 280 0 280 0 0 1480
0 1480 453 2 452 3 3 238 2 237 -1190 0 -1190 0 0 -240z"/>
<path d="M8020 751 c-136 -45 -230 -168 -230 -303 0 -117 75 -231 183 -279 76
-34 182 -32 259 4 109 53 171 151 171 272 0 172 -123 303 -291 311 -37 2 -78
0 -92 -5z"/>
</g>
</svg>
