<?xml version="1.0" encoding="UTF-8"?>
<svg version="1.1" xmlns="http://www.w3.org/2000/svg" width="1200" height="350">
<path d="M0 0 C0.99 0.33 1.98 0.66 3 1 C3.495 3.475 3.495 3.475 4 6 C4.66 6 5.32 6 6 6 C7.17094005 8.7899439 8.33690927 11.58178597 9.5 14.375 C9.83386719 15.1690625 10.16773437 15.963125 10.51171875 16.78125 C10.82753906 17.54179687 11.14335938 18.30234375 11.46875 19.0859375 C11.76201172 19.7876709 12.05527344 20.4894043 12.35742188 21.21240234 C13 23 13 23 13 25 C13.66 25 14.32 25 15 25 C15.24645264 25.58378418 15.49290527 26.16756836 15.74682617 26.76904297 C16.89037299 29.47245705 18.03891171 32.17372422 19.1875 34.875 C19.57486328 35.7928125 19.96222656 36.710625 20.36132812 37.65625 C22.67134412 43.07810573 25.13195737 48.37938125 27.80151367 53.63330078 C41 79.69688328 41 79.69688328 41 85 C41.66 85 42.32 85 43 85 C43.21092285 85.51272461 43.4218457 86.02544922 43.63916016 86.55371094 C47.29872442 95.42165125 50.9653586 104.22718689 55.359375 112.76171875 C57.54526993 117.07625898 59.61756516 121.44138534 61.6875 125.8125 C62.0683374 126.61365234 62.4491748 127.41480469 62.84155273 128.24023438 C63.9050763 130.4887065 64.95718791 132.74185365 66 135 C66.4633374 136.00232666 66.4633374 136.00232666 66.93603516 137.02490234 C68.21079869 139.87239698 69 141.8417043 69 145 C69.66 145 70.32 145 71 145 C72.17094005 147.7899439 73.33690927 150.58178597 74.5 153.375 C74.83386719 154.1690625 75.16773438 154.963125 75.51171875 155.78125 C75.98544922 156.92207031 75.98544922 156.92207031 76.46875 158.0859375 C76.76201172 158.7876709 77.05527344 159.4894043 77.35742188 160.21240234 C78 162 78 162 78 164 C78.66 164 79.32 164 80 164 C81.33912585 167.12254943 82.67030658 170.24842358 84 173.375 C84.3815625 174.26445312 84.763125 175.15390625 85.15625 176.0703125 C85.69765625 177.34648437 85.69765625 177.34648437 86.25 178.6484375 C86.58515625 179.43395996 86.9203125 180.21948242 87.265625 181.02880859 C88 183 88 183 88 185 C88.66 185 89.32 185 90 185 C90.21615967 185.57331055 90.43231934 186.14662109 90.6550293 186.73730469 C96.10200531 201.2207827 96.10200531 201.2207827 101.9921875 215.52734375 C103.12778278 218.31351356 104.07508227 221.13775461 105 224 C105.99 223.67 106.98 223.34 108 223 C108.89082552 221.04309081 108.89082552 221.04309081 109.4375 218.625 C110.97770956 212.95571801 112.94056333 207.49880045 115 202 C115.66 202 116.32 202 117 202 C117.15855469 201.41734375 117.31710938 200.8346875 117.48046875 200.234375 C119.4679738 193.2506556 122.10716317 186.65466812 125 180 C125.66 180 126.32 180 127 180 C127.10183594 179.33613281 127.20367187 178.67226562 127.30859375 177.98828125 C128.18318535 174.20826673 129.58605015 170.76729141 131.0625 167.1875 C131.34416016 166.49462891 131.62582031 165.80175781 131.91601562 165.08789062 C132.60674973 163.39032376 133.30283728 161.69493688 134 160 C134.66 160 135.32 160 136 160 C136.17015625 159.46632812 136.3403125 158.93265625 136.515625 158.3828125 C139.50519402 149.19147795 143.14517612 140.59371583 147.5390625 131.984375 C149.6113258 127.75119543 151.34168606 123.40916413 153 119 C153.66 119 154.32 119 155 119 C155.10183594 118.33613281 155.20367187 117.67226562 155.30859375 116.98828125 C156.18318535 113.20826673 157.58605015 109.76729141 159.0625 106.1875 C159.34416016 105.49462891 159.62582031 104.80175781 159.91601562 104.08789062 C160.60674973 102.39032376 161.30283728 100.69493688 162 99 C162.66 99 163.32 99 164 99 C164.17015625 98.46632813 164.3403125 97.93265625 164.515625 97.3828125 C167.51082311 88.17417151 171.16149525 79.56346931 175.5625 70.9375 C177.22244467 67.54543915 178.58020065 64.09253219 179.93359375 60.5703125 C181.6006449 56.55229178 183.62908083 52.72428211 185.60546875 48.8515625 C187.34147765 45.30174038 188.70828839 41.7316113 190 38 C190.66 38 191.32 38 192 38 C192.10183594 37.33613281 192.20367187 36.67226563 192.30859375 35.98828125 C193.18318535 32.20826673 194.58605015 28.76729141 196.0625 25.1875 C196.34416016 24.49462891 196.62582031 23.80175781 196.91601562 23.08789062 C197.60674973 21.39032376 198.30283728 19.69493688 199 18 C199.66 18 200.32 18 201 18 C201.17015625 17.45472656 201.3403125 16.90945312 201.515625 16.34765625 C203.32540814 10.71615022 205.50345378 5.36060431 208 0 C208.99 0 209.98 0 211 0 C218.24756751 28.32805573 218.24756751 28.32805573 218 35 C218.66 35 219.32 35 220 35 C220.34780518 36.67956787 220.34780518 36.67956787 220.70263672 38.39306641 C221.56749883 42.56472426 222.43710083 46.73538243 223.30810547 50.90576172 C223.6837399 52.70757754 224.05810486 54.50965852 224.43115234 56.31201172 C224.96895591 58.90924443 225.5113845 61.50547535 226.0546875 64.1015625 C226.21935516 64.9017984 226.38402283 65.7020343 226.55368042 66.52651978 C227.45426028 70.80576194 228.60492657 74.85050635 230 79 C230.58641276 81.54129282 231.13963852 84.07391646 231.65625 86.62890625 C231.95960065 88.09050201 232.26298714 89.55209033 232.56640625 91.01367188 C233.03506076 93.29326053 233.50217818 95.57315581 233.96826172 97.85327148 C234.42291578 100.07096237 234.88311143 102.28745194 235.34375 104.50390625 C235.48026978 105.18111221 235.61678955 105.85831818 235.75744629 106.55604553 C236.32508982 109.28054186 236.93876883 111.84904394 237.98632812 114.43164062 C239.41874242 118.0609755 240.10628627 121.77244794 240.875 125.58984375 C241.04499512 126.41198868 241.21499023 127.23413361 241.39013672 128.08119202 C241.93113042 130.69908427 242.46615481 133.31814136 243 135.9375 C243.53418296 138.55321268 244.06978167 141.16859483 244.60986328 143.78309631 C244.94509579 145.40626312 245.27697987 147.03012627 245.60498047 148.6547699 C246.47974758 152.8941605 247.59996401 156.89714589 249 161 C250.14387588 165.66490248 251.12274502 170.36532895 252.125 175.0625 C252.54072266 176.96225586 252.54072266 176.96225586 252.96484375 178.90039062 C253.22652344 180.12048828 253.48820312 181.34058594 253.7578125 182.59765625 C254.11576904 184.26066772 254.11576904 184.26066772 254.48095703 185.95727539 C254.9515901 188.71621232 255.10314459 191.21023084 255 194 C255.66 194 256.32 194 257 194 C258.00329311 198.74925109 259.00000341 203.49981897 259.99072266 208.25170898 C260.32844783 209.86699377 260.66794735 211.48190866 261.00927734 213.09643555 C261.50047819 215.42140514 261.98521637 217.74764408 262.46875 220.07421875 C262.62186646 220.79212082 262.77498291 221.51002289 262.93273926 222.24967957 C263.68230431 225.88840423 264.17747418 229.28254981 264 233 C264.66 233 265.32 233 266 233 C267.1458231 238.31885902 268.28495449 243.63909107 269.41796875 248.96069336 C269.80416229 250.77000363 270.19216616 252.57892849 270.58203125 254.38745117 C271.14281509 256.99037516 271.69702638 259.59462584 272.25 262.19921875 C272.42499023 263.00461594 272.59998047 263.81001312 272.78027344 264.63981628 C273.59156323 268.49152987 274.22226555 272.03742206 274 276 C274.66 276 275.32 276 276 276 C276.85332335 279.91257834 277.67882606 283.83055898 278.5 287.75 C278.73847656 288.84183594 278.97695313 289.93367188 279.22265625 291.05859375 C279.44824219 292.14785156 279.67382812 293.23710937 279.90625 294.359375 C280.11572266 295.34389648 280.32519531 296.32841797 280.54101562 297.34277344 C281.19119417 302.52345144 281 307.77868247 281 313 C266.15 313 251.3 313 236 313 C234.17307816 305.69231262 232.36988584 298.42523849 230.8125 291.0625 C230.63525391 290.25232422 230.45800781 289.44214844 230.27539062 288.60742188 C229.44156743 284.67654108 228.76303299 281.04478168 229 277 C228.34 277 227.68 277 227 277 C225.99687912 272.10826122 225.00016078 267.21527725 224.00927734 262.32104492 C223.67150436 260.6572782 223.33200388 258.99386119 222.99072266 257.33081055 C222.49964909 254.93629004 222.01486161 252.5405685 221.53125 250.14453125 C221.37813354 249.4047554 221.22501709 248.66497955 221.06726074 247.90278625 C220.32962236 244.21658209 219.8191542 240.76223853 220 237 C219.34 237 218.68 237 218 237 C217.7733667 235.84064941 217.5467334 234.68129883 217.31323242 233.48681641 C216.4627847 229.14337198 215.6057508 224.80124799 214.74682617 220.45947266 C214.37754371 218.58807616 214.0099955 216.71633651 213.64428711 214.84423828 C213.11519079 212.13740173 212.57965555 209.43190305 212.04296875 206.7265625 C211.80370918 205.49155502 211.80370918 205.49155502 211.55961609 204.2315979 C210.54151915 199.13870925 209.21278049 194.22531175 207.67869568 189.26431274 C206.85029823 186.50055433 206.23188196 183.73040589 205.68359375 180.8984375 C205.37470215 179.30793579 205.37470215 179.30793579 205.05957031 177.68530273 C204.85428711 176.59290283 204.64900391 175.50050293 204.4375 174.375 C204.22061523 173.2394165 204.00373047 172.10383301 203.78027344 170.93383789 C202.33356618 163.2058087 201.17296938 155.5022357 200.359375 147.68359375 C200.28780287 145.085471 200.28780287 145.085471 199 144 C198.68076508 141.9427083 198.48838648 139.88386479 198.28125 137.8125 C198.18001957 135.9832467 198.18001957 135.9832467 197 135 C195.35 140.61 193.7 146.22 192 152 C191.34 152 190.68 152 190 152 C189.89816406 152.66386719 189.79632813 153.32773438 189.69140625 154.01171875 C188.81681465 157.79173327 187.41394985 161.23270859 185.9375 164.8125 C185.65583984 165.50537109 185.37417969 166.19824219 185.08398438 166.91210938 C184.39325027 168.60967624 183.69716272 170.30506312 183 172 C182.34 172 181.68 172 181 172 C180.608125 173.258125 180.21625 174.51625 179.8125 175.8125 C177.96115906 181.40212552 175.51454474 186.68268207 173 192 C172.34 192 171.68 192 171 192 C170.67 193.155 170.34 194.31 170 195.5 C168.21241056 200.90532997 165.65059264 205.83422908 163.0625 210.88671875 C160.04695462 216.80612264 157.43592294 222.81650331 155 229 C154.34 229 153.68 229 153 229 C152.608125 230.258125 152.21625 231.51625 151.8125 232.8125 C149.96115906 238.40212552 147.51454474 243.68268207 145 249 C144.34 249 143.68 249 143 249 C142.89816406 249.67417969 142.79632813 250.34835937 142.69140625 251.04296875 C141.84598862 254.65868143 140.4376995 257.9327002 138.9375 261.3125 C138.65583984 261.95767578 138.37417969 262.60285156 138.08398438 263.26757812 C137.3937257 264.84698358 136.69746802 266.42376493 136 268 C135.34 268 134.68 268 134 268 C133.72414062 268.85851562 133.44828125 269.71703125 133.1640625 270.6015625 C132.02542236 273.92578037 130.74150269 277.13854627 129.375 280.375 C128.92898437 281.43460937 128.48296875 282.49421875 128.0234375 283.5859375 C127.68570313 284.38257813 127.34796875 285.17921875 127 286 C126.34 286 125.68 286 125 286 C124.84144531 286.53367187 124.68289062 287.06734375 124.51953125 287.6171875 C122.5952327 293.76218509 119.97249576 299.30052436 117 305 C113.81305828 311.25834478 110.7874834 317.55297136 108 324 C106.68 324 105.36 324 104 324 C99.59622896 315.39834851 95.3823376 306.77136338 91.58691406 297.88305664 C89.13254376 292.18079253 86.36385565 286.67984383 83.48046875 281.18359375 C81.90491423 277.79552797 80.93305859 274.60934373 80 271 C79.34 271 78.68 271 78 271 C76.8265684 268.39869373 75.66107492 265.79431492 74.5 263.1875 C74.16613281 262.44951172 73.83226562 261.71152344 73.48828125 260.95117188 C73.01455078 259.88286133 73.01455078 259.88286133 72.53125 258.79296875 C72.23798828 258.1383667 71.94472656 257.48376465 71.64257812 256.80932617 C71 255 71 255 71 252 C70.34 252 69.68 252 69 252 C68.49210938 250.83984375 67.98421875 249.6796875 67.4609375 248.484375 C62.78828296 237.86065495 62.78828296 237.86065495 57.6875 227.4375 C55.27298268 222.72030948 53.52201634 218.07338779 52 213 C51.34 213 50.68 213 50 213 C48.82905995 210.2100561 47.66309073 207.41821403 46.5 204.625 C46.16613281 203.8309375 45.83226563 203.036875 45.48828125 202.21875 C45.17246094 201.45820313 44.85664062 200.69765625 44.53125 199.9140625 C44.23798828 199.2123291 43.94472656 198.5105957 43.64257812 197.78759766 C43 196 43 196 43 194 C42.34 194 41.68 194 41 194 C40.49210937 192.83984375 39.98421875 191.6796875 39.4609375 190.484375 C35.9725662 182.55316224 32.41429868 174.69897544 28.49609375 166.96875 C22.74788902 155.56239075 18.04799031 144.11431533 14 132 C13.89042969 132.74193604 13.78085938 133.48387207 13.66796875 134.24829102 C12.38478778 142.77609785 10.93423829 151.26527194 9.39550781 159.75024414 C8.996225 161.95837669 8.60355505 164.16762695 8.2109375 166.37695312 C7.95352766 167.80215612 7.69572938 169.22728902 7.4375 170.65234375 C7.20933594 171.92070068 6.98117188 173.18905762 6.74609375 174.49584961 C6 178 6 178 5.01367188 180.94140625 C3.778801 184.66743281 3.05351145 188.43374746 2.34375 192.28515625 C2.04039035 193.88346843 1.73700414 195.48177557 1.43359375 197.08007812 C0.96485945 199.57696132 0.49782492 202.07415446 0.03173828 204.5715332 C-0.42256105 206.99772045 -0.88292732 209.42270094 -1.34375 211.84765625 C-1.54852966 212.9618972 -1.54852966 212.9618972 -1.75744629 214.09864807 C-2.30601595 216.97832853 -2.87691716 219.69685265 -3.98193359 222.41845703 C-5.51902378 226.3161049 -6.16877949 230.34951782 -6.9453125 234.45703125 C-7.12005096 235.35999435 -7.29478943 236.26295746 -7.474823 237.19328308 C-8.0295374 240.0654817 -8.5773586 242.93894528 -9.125 245.8125 C-9.50084746 247.76506152 -9.87714449 249.71753657 -10.25390625 251.66992188 C-11.17448257 256.44562831 -12.08888075 261.2224807 -13 266 C-13.66 266 -14.32 266 -15 266 C-15.03665771 266.5347998 -15.07331543 267.06959961 -15.11108398 267.62060547 C-15.80111615 275.9061091 -17.44063596 283.98483165 -19.0625 292.125 C-19.34742868 293.57283339 -19.63193702 295.02074957 -19.91601562 296.46875 C-20.60583869 299.98013338 -21.30132575 303.49036568 -22 307 C-22.66 307 -23.32 307 -24 307 C-24 308.98 -24 310.96 -24 313 C-39.18 313 -54.36 313 -70 313 C-70 305.12371539 -70 305.12371539 -69.20556641 301.33740234 C-69.03183502 300.49317719 -68.85810364 299.64895203 -68.67910767 298.77914429 C-68.48851776 297.89038605 -68.29792786 297.00162781 -68.1015625 296.0859375 C-67.90654144 295.15327057 -67.71152039 294.22060364 -67.5105896 293.25967407 C-67.09864253 291.29740626 -66.68326534 289.33585575 -66.26464844 287.375 C-65.62593638 284.37939169 -64.9996604 281.38137886 -64.375 278.3828125 C-63.97208832 276.47119928 -63.56846662 274.55973555 -63.1640625 272.6484375 C-62.97752106 271.7556308 -62.79097961 270.8628241 -62.5987854 269.94296265 C-61.69882122 265.75435608 -60.60730817 261.97590913 -59 258 C-58.3756654 255.28584467 -57.80087195 252.58796159 -57.2734375 249.85546875 C-57.12089508 249.08568192 -56.96835266 248.31589508 -56.81118774 247.52278137 C-56.32791339 245.07855761 -55.85136459 242.63307881 -55.375 240.1875 C-55.04731903 238.52400101 -54.71919877 236.8605885 -54.390625 235.19726562 C-53.58866038 231.13249395 -52.79272245 227.06658377 -52 223 C-51.34 223 -50.68 223 -50 223 C-49.89558594 221.82953125 -49.79117188 220.6590625 -49.68359375 219.453125 C-48.98278075 213.16181951 -47.72283471 206.97828722 -46.47094727 200.77832031 C-46.06078023 198.74145973 -45.6599555 196.702904 -45.25976562 194.6640625 C-44.9979542 193.35405495 -44.73560342 192.04415505 -44.47265625 190.734375 C-44.23812744 189.56100586 -44.00359863 188.38763672 -43.76196289 187.17871094 C-43 184 -43 184 -42.02514648 181.63183594 C-40.57070443 177.89787895 -39.89104327 174.08134504 -39.125 170.15625 C-38.95500488 169.30953735 -38.78500977 168.46282471 -38.60986328 167.5904541 C-38.06871302 164.89451705 -37.53361219 162.19743853 -37 159.5 C-36.2971004 155.94680448 -35.58797422 152.39493606 -34.875 148.84375 C-34.71660645 148.03216431 -34.55821289 147.22057861 -34.39501953 146.38439941 C-33.58720084 142.36374255 -32.53644877 138.80931765 -31 135 C-30.3756654 132.28584467 -29.80087195 129.58796159 -29.2734375 126.85546875 C-29.12089508 126.08568192 -28.96835266 125.31589508 -28.81118774 124.52278137 C-28.32791339 122.07855761 -27.85136459 119.63307881 -27.375 117.1875 C-27.04731903 115.52400101 -26.71919877 113.8605885 -26.390625 112.19726562 C-25.58866038 108.13249395 -24.79272245 104.06658377 -24 100 C-23.34 100 -22.68 100 -22 100 C-21.96334229 99.45939941 -21.92668457 98.91879883 -21.88891602 98.36181641 C-21.2166333 90.24290154 -19.58066941 82.33987306 -17.9375 74.375 C-17.65254277 72.97535237 -17.36803431 71.57561329 -17.08398438 70.17578125 C-16.39448645 66.78278571 -15.69894818 63.39106304 -15 60 C-14.34 60 -13.68 60 -13 60 C-12.85884766 58.30423828 -12.85884766 58.30423828 -12.71484375 56.57421875 C-11.94688524 49.67878816 -10.45831802 42.90965766 -9.04370117 36.12426758 C-8.56169232 33.80861979 -8.08804701 31.49136907 -7.61523438 29.17382812 C-7.30778799 27.68479327 -6.99986187 26.19585737 -6.69140625 24.70703125 C-6.55174942 24.02252396 -6.41209259 23.33801666 -6.26820374 22.63276672 C-5.43064889 18.64481413 -4.34635115 14.84409098 -3 11 C-2.44382602 9.04573729 -1.90151406 7.08746151 -1.375 5.125 C-1.11460938 4.15820312 -0.85421875 3.19140625 -0.5859375 2.1953125 C-0.39257812 1.47085937 -0.19921875 0.74640625 0 0 Z " fill="#000000" transform="translate(70,13)"/>
<path d="M0 0 C18.53472645 -0.04010881 18.53472645 -0.04010881 26.54101562 -0.04882812 C31.96721394 -0.05476595 37.39339511 -0.06172823 42.81958008 -0.07543945 C47.20274605 -0.0864436 51.5858936 -0.09231325 55.96907234 -0.09487724 C57.6268855 -0.09670037 59.28469785 -0.10025886 60.94250298 -0.10573006 C69.50697778 -0.13282615 78.04090748 -0.03014293 86.59399414 0.44360352 C87.32520446 0.48245887 88.05641478 0.52131422 88.80978298 0.56134701 C93.87587242 0.87587242 93.87587242 0.87587242 95 2 C96.55352963 2.23865708 98.11585602 2.42050959 99.6796875 2.578125 C115.8694253 4.328618 132.35771392 6.38717796 147 14 C147.79148437 14.36738281 148.58296875 14.73476563 149.3984375 15.11328125 C155.75912394 18.11748238 161.35017111 21.82767571 167 26 C167.70125 26.50660156 168.4025 27.01320313 169.125 27.53515625 C176.35901268 32.83350538 183.82605062 38.57224691 189 46 C189 46.66 189 47.32 189 48 C189.99 48.33 190.98 48.66 192 49 C193.82421875 51.43359375 193.82421875 51.43359375 195.6875 54.4375 C196.31011719 55.42621094 196.93273437 56.41492188 197.57421875 57.43359375 C199 60 199 60 199 62 C199.66 62 200.32 62 201 62 C202.17133058 64.45620851 203.33721722 66.91474917 204.5 69.375 C204.83386719 70.07367188 205.16773438 70.77234375 205.51171875 71.4921875 C208 76.7734375 208 76.7734375 208 79 C208.66 79 209.32 79 210 79 C211.76136231 84.50719282 213.50711873 90.01887373 215.23046875 95.53808594 C215.69899685 97.0370191 216.16976021 98.53525908 216.64453125 100.03222656 C219.46072931 108.95497655 221.04768178 117.69735462 222 127 C222.16822266 128.5159375 222.16822266 128.5159375 222.33984375 130.0625 C224.41398336 151.88358522 223.26409824 174.49805781 219 196 C218.34 196 217.68 196 217 196 C216.89816406 197.11375 216.79632812 198.2275 216.69140625 199.375 C216.05618486 204.45677112 214.54225324 209.15223035 212.9375 214 C212.65583984 214.87011719 212.37417969 215.74023438 212.08398438 216.63671875 C211.39567574 218.75997589 210.70093339 220.88088417 210 223 C209.34 223 208.68 223 208 223 C207.82984375 223.556875 207.6596875 224.11375 207.484375 224.6875 C205.76684063 230.09590609 203.64657745 234.98062896 201 240 C200.34 240 199.68 240 199 240 C198.72800781 240.7321875 198.45601562 241.464375 198.17578125 242.21875 C195.40701124 248.76813289 191.13377569 254.13642303 186 259 C185.401875 259.78375 184.80375 260.5675 184.1875 261.375 C178.26390473 268.48331433 170.50980682 273.70238434 163 279 C162.030625 279.70125 161.06125 280.4025 160.0625 281.125 C153.39568376 285.20672423 146.84271595 289.03133121 139 290 C139 290.66 139 291.32 139 292 C127.92777067 295.20145602 117.03964727 297.66340229 105.59301758 299.09887695 C104.74505615 299.20546631 103.89709473 299.31205566 103.0234375 299.421875 C101.89301025 299.55480957 101.89301025 299.55480957 100.73974609 299.69042969 C98.97619454 299.83304057 98.97619454 299.83304057 98 301 C86.52322017 302.33573298 74.91258149 302.13261301 63.37890625 302.09765625 C61.53946471 302.09578596 59.70002266 302.09436495 57.86058044 302.09336853 C53.071834 302.08959139 48.28311898 302.07980348 43.49438477 302.06866455 C37.72048339 302.05652441 31.94657137 302.05202528 26.17266083 302.04621124 C17.44841885 302.03658806 8.72424551 302.01739823 0 302 C0 287.15 0 272.3 0 257 C6.79851562 256.90912109 6.79851562 256.90912109 13.734375 256.81640625 C16.65104838 256.7757864 19.56771569 256.7349504 22.484375 256.69335938 C27.08721429 256.62774358 31.6900541 256.56281539 36.29296875 256.50268555 C74.33652056 257.64547263 74.33652056 257.64547263 111 250 C113.31173238 249.10218766 115.62428039 248.20647352 117.9375 247.3125 C119.03964844 246.87550781 120.14179688 246.43851563 121.27734375 245.98828125 C124 245 124 245 126 245 C126.33 244.34 126.66 243.68 127 243 C128.53796271 241.90228273 130.1055652 240.84584157 131.6875 239.8125 C135.67059568 237.08334185 138.72756975 234.3805123 141.7109375 230.60546875 C143 229 143 229 145.4375 226.6875 C152.91463898 218.84562253 157.00790245 209.96877232 161 200 C161.51949219 198.82566406 162.03898438 197.65132812 162.57421875 196.44140625 C173.88771441 169.13403728 171.88906818 128.00093427 161.09765625 100.71875 C156.14561695 89.1043285 149.46949366 77.49826354 140 69 C139.46761719 68.51015625 138.93523437 68.0203125 138.38671875 67.515625 C134.50861545 64.04166994 130.59778107 61.43963893 126 59 C126 58.34 126 57.68 126 57 C124.92492187 56.81244141 124.92492187 56.81244141 123.828125 56.62109375 C120.99110018 55.99804548 118.45609231 55.11091296 115.75 54.0625 C110.86908984 52.24126486 106.10790031 51.00483285 101 50 C101 49.34 101 48.68 101 48 C77.9199072 46.56132048 54.8690554 45.79262051 31.74853516 45.46777344 C28.15393421 45.41652826 24.55939214 45.36142951 20.96484375 45.30664062 C13.97661125 45.20039383 6.98832996 45.10032117 0 45 C0 30.15 0 15.3 0 0 Z " fill="#000000" transform="translate(387,24)"/>
<path d="M0 0 C0.99 0 1.98 0 3 0 C3.99 2.97 3.99 2.97 5 6 C5.66 6 6.32 6 7 6 C8.17314026 8.76825188 9.33870215 11.53928486 10.5 14.3125 C11.00080078 15.49102539 11.00080078 15.49102539 11.51171875 16.69335938 C11.98544922 17.8293457 11.98544922 17.8293457 12.46875 18.98828125 C12.76201172 19.68477783 13.05527344 20.38127441 13.35742188 21.09887695 C14 23 14 23 14 26 C14.66 26 15.32 26 16 26 C17.33912585 29.12254943 18.67030658 32.24842358 20 35.375 C20.57234375 36.70917969 20.57234375 36.70917969 21.15625 38.0703125 C21.5171875 38.92109375 21.878125 39.771875 22.25 40.6484375 C22.58515625 41.43395996 22.9203125 42.21948242 23.265625 43.02880859 C24 45 24 45 24 47 C24.66 47 25.32 47 26 47 C26.22139648 47.53367188 26.44279297 48.06734375 26.67089844 48.6171875 C27.69431931 51.07936134 28.72213267 53.53967926 29.75 56 C30.27207031 57.25876953 30.27207031 57.25876953 30.8046875 58.54296875 C32.75304613 63.19738102 34.82286837 67.73739765 37.11621094 72.23144531 C38.28330133 74.5669157 39.28589908 76.94944452 40.25 79.375 C40.58515625 80.20773438 40.9203125 81.04046875 41.265625 81.8984375 C42 84 42 84 42 86 C42.66 86 43.32 86 44 86 C44.3242395 86.78479736 44.3242395 86.78479736 44.6550293 87.58544922 C49.91956575 100.3490217 49.91956575 100.3490217 55.90234375 112.78515625 C61 123.07117438 61 123.07117438 61 127 C61.66 127 62.32 127 63 127 C64.17094005 129.7899439 65.33690927 132.58178597 66.5 135.375 C66.83386719 136.1690625 67.16773438 136.963125 67.51171875 137.78125 C67.98544922 138.92207031 67.98544922 138.92207031 68.46875 140.0859375 C68.76201172 140.7876709 69.05527344 141.4894043 69.35742188 142.21240234 C70 144 70 144 70 146 C70.66 146 71.32 146 72 146 C72.21615967 146.52319824 72.43231934 147.04639648 72.6550293 147.58544922 C77.91956575 160.3490217 77.91956575 160.3490217 83.90234375 172.78515625 C89 183.07117438 89 183.07117438 89 187 C89.66 187 90.32 187 91 187 C91.21615967 187.52319824 91.43231934 188.04639648 91.6550293 188.58544922 C96.95619292 201.44851 96.95619292 201.44851 102.96875 213.98828125 C107 221.85227273 107 221.85227273 107 226 C107.66 226 108.32 226 109 226 C109.24645264 226.58378418 109.49290527 227.16756836 109.74682617 227.76904297 C110.89037299 230.47245705 112.03891171 233.17372422 113.1875 235.875 C113.57486328 236.7928125 113.96222656 237.710625 114.36132812 238.65625 C116.69854714 244.14195414 119.18510478 249.50894649 121.8984375 254.8190918 C126 262.93949468 126 262.93949468 126 267 C126.66 267 127.32 267 128 267 C129.17094005 269.7899439 130.33690927 272.58178597 131.5 275.375 C131.83386719 276.1690625 132.16773438 276.963125 132.51171875 277.78125 C132.82753906 278.54179687 133.14335938 279.30234375 133.46875 280.0859375 C133.90864258 281.1385376 133.90864258 281.1385376 134.35742188 282.21240234 C135 284 135 284 135 286 C135.66 286 136.32 286 137 286 C137.2266333 286.54938232 137.4532666 287.09876465 137.68676758 287.66479492 C138.72460495 290.17407035 139.76849279 292.68078567 140.8125 295.1875 C141.16892578 296.05181641 141.52535156 296.91613281 141.89257812 297.80664062 C143.36179447 301.32467242 144.7919166 304.65442468 146.76171875 307.92578125 C148 310 148 310 148 313 C130.18 313 112.36 313 94 313 C92.02 308.05 92.02 308.05 90 303 C89.03097236 301.09320368 88.06192785 299.1863899 87.08203125 297.28515625 C81 284.44043321 81 284.44043321 81 280 C80.34 280 79.68 280 79 280 C78.77860352 279.44127197 78.55720703 278.88254395 78.32910156 278.30688477 C77.30463519 275.72466449 76.2773323 273.14358134 75.25 270.5625 C74.90195312 269.68400391 74.55390625 268.80550781 74.1953125 267.90039062 C72.1929674 262.87598763 70.10232417 257.90851885 67.88378906 252.97583008 C66.78744857 250.52481251 65.7540334 248.05266221 64.75 245.5625 C64.41484375 244.73878906 64.0796875 243.91507813 63.734375 243.06640625 C63 241 63 241 63 239 C62.34 239 61.68 239 61 239 C59.6582322 235.73256344 58.32805641 232.46053092 57 229.1875 C56.6184375 228.25873047 56.236875 227.32996094 55.84375 226.37304688 C55.4828125 225.48037109 55.121875 224.58769531 54.75 223.66796875 C54.41484375 222.84578857 54.0796875 222.0236084 53.734375 221.17651367 C53 219 53 219 53 216 C52.34 216 51.68 216 51 216 C49.82538445 212.89878289 48.66169544 209.79357759 47.5 206.6875 C47.16613281 205.80642578 46.83226562 204.92535156 46.48828125 204.01757812 C46.01455078 202.74624023 46.01455078 202.74624023 45.53125 201.44921875 C45.23798828 200.66893311 44.94472656 199.88864746 44.64257812 199.0847168 C44 197 44 197 44 194 C43.34 194 42.68 194 42 194 C41.77860352 193.46632812 41.55720703 192.93265625 41.32910156 192.3828125 C40.30568069 189.92063866 39.27786733 187.46032074 38.25 185 C37.72792969 183.74123047 37.72792969 183.74123047 37.1953125 182.45703125 C35.25884377 177.83102263 33.1941473 173.32845866 30.91503906 168.86230469 C29.51641423 166.01579717 28.37903447 163.08697316 27.25 160.125 C26.82203125 159.01382813 26.3940625 157.90265625 25.953125 156.7578125 C25 154 25 154 25 152 C24.34 152 23.68 152 23 152 C21.8278551 149.04380781 20.66322524 146.08471211 19.5 143.125 C19.16613281 142.28324219 18.83226562 141.44148437 18.48828125 140.57421875 C18.01455078 139.36572266 18.01455078 139.36572266 17.53125 138.1328125 C17.23798828 137.38918457 16.94472656 136.64555664 16.64257812 135.87939453 C16 134 16 134 16 132 C15.34 132 14.68 132 14 132 C13.7733667 131.34515625 13.5467334 130.6903125 13.31323242 130.015625 C12.27237223 127.01005166 11.2299473 124.00502322 10.1875 121 C9.83107422 119.97003906 9.47464844 118.94007813 9.10742188 117.87890625 C7.55262444 113.39994851 5.99078024 108.92995481 4.30078125 104.5 C3 101 3 101 2 97 C0.68 102.28 -0.64 107.56 -2 113 C-2.66 113 -3.32 113 -4 113 C-4.20625 114.155 -4.4125 115.31 -4.625 116.5 C-6.24479591 123.92009449 -9.24650329 130.94308232 -12 138 C-12.66 138 -13.32 138 -14 138 C-14.17015625 138.60585937 -14.3403125 139.21171875 -14.515625 139.8359375 C-16.31566942 146.05949532 -18.49618433 152.02642961 -21 158 C-21.66 158 -22.32 158 -23 158 C-23.17015625 158.60585937 -23.3403125 159.21171875 -23.515625 159.8359375 C-25.31566942 166.05949532 -27.49618433 172.02642961 -30 178 C-30.66 178 -31.32 178 -32 178 C-32.391875 179.216875 -32.78375 180.43375 -33.1875 181.6875 C-36.16810753 190.58734219 -39.47162217 199.2307133 -43.796875 207.56640625 C-45.79300358 211.60402996 -47.3979491 215.79349765 -49 220 C-49.66 220 -50.32 220 -51 220 C-51.17015625 220.52207031 -51.3403125 221.04414063 -51.515625 221.58203125 C-53.55240658 227.7682136 -55.74962705 233.88858108 -58 240 C-58.66 240 -59.32 240 -60 240 C-60.15855469 240.58265625 -60.31710937 241.1653125 -60.48046875 241.765625 C-62.4679738 248.7493444 -65.10716317 255.34533188 -68 262 C-68.66 262 -69.32 262 -70 262 C-70.10828125 262.67675781 -70.2165625 263.35351562 -70.328125 264.05078125 C-71.13204327 267.57960855 -72.38950521 270.84567328 -73.75 274.1875 C-74.01731934 274.85096436 -74.28463867 275.51442871 -74.56005859 276.19799805 C-76.44395019 280.80710374 -78.55324016 285.24773583 -80.84765625 289.66796875 C-82.44651384 292.90362292 -83.72051231 296.24222689 -85.0234375 299.60546875 C-86.48044803 303.17805856 -88.25094515 306.56220253 -90 310 C-90.33 310.99 -90.66 311.98 -91 313 C-108.82 313 -126.64 313 -145 313 C-144.67 311.35 -144.34 309.7 -144 308 C-143.34 308 -142.68 308 -142 308 C-141.82984375 307.46632813 -141.6596875 306.93265625 -141.484375 306.3828125 C-138.50795515 297.23190466 -134.88768624 288.63241148 -130.51245117 280.06323242 C-128.34467113 275.78619709 -126.54213524 271.53569189 -125 267 C-124.34 267 -123.68 267 -123 267 C-122.82984375 266.46632813 -122.6596875 265.93265625 -122.484375 265.3828125 C-120.56536676 259.4828829 -118.35945761 253.73695531 -116 248 C-115.34 248 -114.68 248 -114 248 C-113.82984375 247.46632813 -113.6596875 246.93265625 -113.484375 246.3828125 C-110.48652214 237.16600955 -106.84265694 228.51594708 -102.44140625 219.87890625 C-100.84844047 216.69729168 -99.41282035 213.4696174 -97.99609375 210.20703125 C-96.90287036 207.78479118 -95.71045195 205.42821613 -94.5 203.0625 C-92.84516028 199.79808972 -91.37910069 196.53942088 -90.0625 193.125 C-88.15557469 188.19490042 -85.79562004 183.5564808 -83.39453125 178.8515625 C-81.65852235 175.30174038 -80.29171161 171.7316113 -79 168 C-78.34 168 -77.68 168 -77 168 C-76.82984375 167.46632812 -76.6596875 166.93265625 -76.484375 166.3828125 C-74.56536676 160.4828829 -72.35945761 154.73695531 -70 149 C-69.34 149 -68.68 149 -68 149 C-67.608125 147.7625 -67.21625 146.525 -66.8125 145.25 C-63.73638699 136.06478404 -59.75885256 127.39878337 -55.359375 118.78125 C-53.63655862 115.25640728 -52.28253434 111.7050992 -51 108 C-50.34 108 -49.68 108 -49 108 C-48.82984375 107.46632813 -48.6596875 106.93265625 -48.484375 106.3828125 C-46.56536676 100.4828829 -44.35945761 94.73695531 -42 89 C-41.34 89 -40.68 89 -40 89 C-39.90203125 88.33355469 -39.8040625 87.66710937 -39.703125 86.98046875 C-38.81634483 83.22150613 -37.32396483 79.82189854 -35.75 76.3125 C-35.43571045 75.60206543 -35.1214209 74.89163086 -34.79760742 74.15966797 C-32.70953885 69.47681625 -30.47539938 64.88918819 -28.1328125 60.328125 C-26.18138205 56.31759897 -24.58654236 52.16578161 -23 48 C-22.34 48 -21.68 48 -21 48 C-20.82984375 47.46632812 -20.6596875 46.93265625 -20.484375 46.3828125 C-17.35264797 36.75441771 -13.47169031 27.79048483 -8.8828125 18.76171875 C-5.76230317 12.5846853 -2.89582452 6.28455533 0 0 Z " fill="#000000" transform="translate(869,13)"/>
<path d="M0 0 C69.63 0 139.26 0 211 0 C211 14.19 211 28.38 211 43 C184.6 43 158.2 43 131 43 C131 128.47 131 213.94 131 302 C113.84 302 96.68 302 79 302 C79 216.53 79 131.06 79 43 C52.93 43 26.86 43 0 43 C0 28.81 0 14.62 0 0 Z " fill="#000000" transform="translate(989,24)"/>
<path d="M0 0 C1.2684375 -0.00515625 2.536875 -0.0103125 3.84375 -0.015625 C7.40390317 0.24301861 10.18745385 0.96178761 13.5 2.25 C13.5 2.91 13.5 3.57 13.5 4.25 C14.056875 4.4975 14.61375 4.745 15.1875 5 C21.75614624 8.55061959 24.94123243 13.1401328 27.08984375 20.18359375 C28.77759668 28.68665375 27.38842499 36.56152331 23.5 44.25 C21.0625 47.1875 21.0625 47.1875 18.5 49.25 C17.695625 49.971875 16.89125 50.69375 16.0625 51.4375 C8.81310718 56.56511931 -0.03060798 55.9278946 -8.5 55.25 C-16.07207812 53.3311274 -21.92191731 47.15185235 -25.875 40.625 C-28.86664261 34.41158842 -29.33819405 28.10569262 -27.875 21.375 C-25.00078542 14.84269413 -21.76260461 8.07714726 -15.5 4.25 C-14.84 4.25 -14.18 4.25 -13.5 4.25 C-13.5 3.59 -13.5 2.93 -13.5 2.25 C-8.86152953 0.44615037 -4.96617066 -0.02018769 0 0 Z " fill="#000000" transform="translate(668.5,273.75)"/>
</svg>
